<svg xmlns="http://www.w3.org/2000/svg" viewBox="0 0 512 128">
	<defs>
		<linearGradient id="gradient" x1="0" x2="0" y1="0" y2="1">
			<stop offset="50%" stop-color="rgba(255, 255, 255, 1)" />
			<stop offset="100%" stop-color="rgba(255, 255, 255, 0)" />
			<feGaussianBlur in="SourceGraphic" stdDeviation="15" />
		</linearGradient>

		<filter id="blur" x="-50%" y="-50%" width="200%" height="200%" xmlns="http://www.w3.org/2000/svg">
			<feGaussianBlur in="SourceGraphic" stdDeviation="2" />
		</filter>

		<style>
			.cloud {
				fill: url("#gradient");
			}

			.clouds {
				filter: url(#blur);		
			}
		</style>
	</defs>

	<g class="clouds">
		<path class="cloud" d="M.77,85c.29-9.1,12.71-21.23,19.02-12.48-.86-12.07,13.92-17.55,20.19-13.28-.3-.2-.33-.33-.49-.6.33.08.66.19.98.33,3.36-23.71,19.25-28.87,34.23-24.67,11.61-44.85,94.83-43.94,83.64,10.66-.12.58-.13-.06-.37.3,21.09-3.03,20.47,13.21,20.86,19.39,23.06-3.01,23.59,13.59,23.63,20.65,0,0-201.69-.3-201.69-.3Z" />

		<path class="cloud" d="M56.11,85c.29-9.1,12.71-21.23,19.02-12.48-.86-12.07,13.92-17.55,20.19-13.28-.3-.2-.33-.33-.49-.6.33.08.66.19.98.33,3.36-23.71,19.25-28.87,34.23-24.67,11.61-44.85,94.83-43.94,83.64,10.66-.12.58-.13-.06-.37.3,21.09-3.03,20.47,13.21,20.86,19.39,23.06-3.01,23.59,13.59,23.63,20.65l-201.69-.3h0Z" />

		<path class="cloud" d="M310.12,85c.29-9.1,12.71-21.23,19.02-12.47-.86-12.07,13.92-17.55,20.19-13.29-.3-.2-.33-.33-.49-.6.33.08.66.19.98.32,3.36-23.71,19.25-28.87,34.23-24.67,11.61-44.85,94.83-43.94,83.64,10.66-.12.58-.13-.06-.37.3,21.09-3.03,20.47,13.21,20.86,19.39,23.06-3.01,23.59,13.59,23.63,20.65l-201.69-.3h0Z" />
		
		<path class="cloud" d="M179.13,96.36c-2.41-21.16,31.59-24.28,30-12.31-2.78-15.8,8.67-24.36,24.9-17.54.03,1.68-3.6-12.99,24.16-20.19,40.94-10.62,47.69,22.64,37.61,28.04,9.95-9.26,39.39,8.8,26.67,22h-143.34Z" />
	</g>
</svg>