<svg xmlns="http://www.w3.org/2000/svg" xmlns:xlink="http://www.w3.org/1999/xlink" viewBox="0 0 1300 160">
	<defs>
		<style>
			#horizon {
				/* fill: #70ac8c; */
				fill: url(#horizon-gradient);
				stroke: none;
			}
		</style>
		<linearGradient id="horizon-gradient" x1="0" y1="50" x2="0" y2="150" gradientTransform="translate(0 170) scale(1 -1)" gradientUnits="userSpaceOnUse">
			<stop offset="0" stop-color="#9dcc41" />
			<stop offset="1" stop-color="#70ac8c" />
		</linearGradient>
	</defs>
	<g>
		<g id="horizon">
			<path d="M 1300, 40.3 c -31.5 -.2 -65.8, 1.5 -97.3, 1.6 -53.9.1 -107.9 -24.8 -160.1 -22.3 -23, 0 -46.1 -.6 -69.1, 0 -21.1.5 -41.3, 5.7 -62.3, 7.2 -55.4, 3.8 -112.5, 0 -168, .3 -62.9.2 -125.8, 3.7 -188.8, 3.7 -19.8, 0 -40.6, 1.5 -60.4, 0 -16.5 -1.2 -32.4 -7.3 -48.4 -8.9 -42 -4 -85.7 -.8 -128 -2.5 -30.6 -1.2 -66.5 -3.3 -96.4, 1.5 -36.2, 5.8 -69.7, 20.6 -106.8, 20.6L -.4, 40.6, 0, 170.9 l 1300 -2.5" />
		</g>
	</g>
</svg>