<svg xmlns="http://www.w3.org/2000/svg" xmlns:xlink="http://www.w3.org/1999/xlink" viewBox="0 0 1300 160">
	<defs>
		<style>
			#horizon path {
				/* fill: #70ac8c; */
				fill: url(#horizon-gradient);
				stroke: none;
			}

			.cls-1 {
				fill: url(#linear-gradient-2);
			}

			.cls-1, .cls-2, .cls-3, .cls-4, .cls-5, .cls-6, .cls-7, .cls-8, .cls-9 {
				stroke: #231f20;
				stroke-width: 2px;
			}

			.cls-2 {
				fill: url(#linear-gradient-4);
			}

			.cls-3 {
				fill: url(#linear-gradient-3);
			}

			.cls-4 {
				fill: url(#linear-gradient);
			}

			.cls-5 {
				fill: #887f80;
			}

			.cls-7 {
				fill: #e5615b;
			}

			.cls-8 {
				fill: #231f20;
			}

			.cls-9 {
				fill: none;
			}
		</style>
		<linearGradient id="horizon-gradient" x1="0" y1="50" x2="0" y2="150" gradientTransform="translate(0 170) scale(1 -1)" gradientUnits="userSpaceOnUse">
			<stop offset="0" stop-color="#9dcc41" />
			<stop offset="1" stop-color="#70ac8c" />
		</linearGradient>
		<linearGradient id="linear-gradient" x1="33.8" y1="157.8" x2="47.3" y2="157.8" gradientTransform="translate(0 170) scale(1 -1)" gradientUnits="userSpaceOnUse">
			<stop offset="0" stop-color="#c7cce7"/>
			<stop offset=".8" stop-color="#5880b8"/>
			<stop offset="1" stop-color="#406fae"/>
		</linearGradient>
		<linearGradient id="linear-gradient-2" x1="33.5" y1="138.1" x2="47.7" y2="138.1" gradientTransform="translate(0 170) scale(1 -1)" gradientUnits="userSpaceOnUse">
			<stop offset="0" stop-color="#d4d7dc"/>
			<stop offset="1" stop-color="#888f95"/>
		</linearGradient>
		<linearGradient id="linear-gradient-3" x1="795.7" y1="165.2" x2="809.2" y2="165.2" gradientTransform="translate(0 170) scale(1 -1)" gradientUnits="userSpaceOnUse">
			<stop offset="0" stop-color="#c7cce7"/>
			<stop offset=".8" stop-color="#5880b8"/>
			<stop offset="1" stop-color="#406fae"/>
		</linearGradient>
		<linearGradient id="linear-gradient-4" x1="795.5" y1="145.6" x2="809.6" y2="145.6" gradientTransform="translate(0 170) scale(1 -1)" gradientUnits="userSpaceOnUse">
			<stop offset="0" stop-color="#d4d7dc"/>
			<stop offset="1" stop-color="#888f95"/>
		</linearGradient>
	</defs>

	<g id="horizon">
		<path d="M 1300, 40.3 c -31.5 -.2 -65.8, 1.5 -97.3, 1.6 -53.9.1 -107.9 -24.8 -160.1 -22.3 -23, 0 -46.1 -.6 -69.1, 0 -21.1.5 -41.3, 5.7 -62.3, 7.2 -55.4, 3.8 -112.5, 0 -168, .3 -62.9.2 -125.8, 3.7 -188.8, 3.7 -19.8, 0 -40.6, 1.5 -60.4, 0 -16.5 -1.2 -32.4 -7.3 -48.4 -8.9 -42 -4 -85.7 -.8 -128 -2.5 -30.6 -1.2 -66.5 -3.3 -96.4, 1.5 -36.2, 5.8 -69.7, 20.6 -106.8, 20.6L -.4, 40.6, 0, 170.9 l 1300 -2.5" />
	</g>

	<g id="distant-barns">
		<g>
			<g>
				<polygon class="cls-5" points="49.9 39.2 81.4 37 83.2 35.5 88.4 25.5 98.2 19.5 62.6 25.2 55.6 29.5 49.9 39.2"/>
				<polyline class="cls-5" points="98 19.6 103.6 26.1 107.4 36.7 109.6 38.5 108.2 38.8 105.8 37.1 102.5 26.6 96.9 20.2"/>
				<line class="cls-9" x1="55.8" y1="29.3" x2="87.7" y2="25.2"/>
				<line class="cls-9" x1="51" y1="37.3" x2="83" y2="35.1"/>
				<polyline class="cls-7" points="51.2 47.6 51.2 39.1 81.1 37.2 81.5 48.4"/>
				<polyline class="cls-7" points="81 48.5 81 37.2 83 35.3 87.5 25.3 97.1 19.8 102.7 26.2 106.4 36.7 108.4 38.4 108.3 48"/>
				<polyline class="cls-5" points="91.3 48.2 91.1 37.2 101.1 37.3 101.2 48.1"/>
				<line class="cls-9" x1="91.2" y1="37.2" x2="101.3" y2="48"/>
				<line class="cls-9" x1="91.3" y1="48.2" x2="101" y2="37.5"/>
				<rect class="cls-5" x="91.1" y="25.9" width="3" height="5.4"/>
				<rect class="cls-5" x="97.4" y="26" width="3" height="5.4"/>
				<rect class="cls-8" x="91.8" y="26.9" width="1.5" height="3.5"/>
				<rect class="cls-8" x="98.1" y="27.1" width="1.5" height="3.5"/>
			</g>
			<path class="cls-4" d="M33.8,16c0-4.1,3-7.5,6.8-7.5s6.8,3.4,6.8,7.5"/>
			<polyline class="cls-1" points="33.5 47.9 33.5 15.9 47.7 15.9 47.7 47.9"/>
		</g>
		<g transform="translate(300, 0)">
			<g>
				<polygon class="cls-5" points="811.8 31.8 843.3 29.5 845.1 28 850.4 18 860.1 12 824.5 17.7 817.6 22 811.8 31.8"/>
				<polyline class="cls-5" points="859.9 12.1 865.6 18.6 869.3 29.2 871.6 31 870.2 31.3 867.7 29.6 864.4 19.1 858.8 12.7"/>
				<line class="cls-9" x1="817.8" y1="21.8" x2="849.6" y2="17.7"/>
				<line class="cls-9" x1="813" y1="29.8" x2="844.9" y2="27.6"/>
				<polyline class="cls-7" points="813.2 40.1 813.2 31.6 843.1 29.7 843.4 40.9"/>
				<polyline class="cls-7" points="843 41 843 29.7 844.9 27.8 849.4 17.8 859 12.3 864.6 18.7 868.3 29.2 870.3 30.9 870.2 40.5"/>
				<polyline class="cls-5" points="853.2 40.8 853 29.7 863 29.8 863.1 40.6"/>
				<line class="cls-9" x1="853.1" y1="29.7" x2="863.2" y2="40.5"/>
				<line class="cls-9" x1="853.2" y1="40.7" x2="862.9" y2="30"/>
				<rect class="cls-5" x="853" y="18.4" width="3" height="5.4"/>
				<rect class="cls-5" x="859.3" y="18.5" width="3" height="5.4"/>
				<rect class="cls-8" x="853.8" y="19.4" width="1.5" height="3.5"/>
				<rect class="cls-8" x="860" y="19.6" width="1.5" height="3.5"/>
			</g>
			<path class="cls-3" d="M795.7,8.5c0-4.1,3-7.5,6.8-7.5s6.8,3.4,6.8,7.5"/>
			<polyline class="cls-2" points="795.5 40.4 795.5 8.4 809.6 8.4 809.6 40.4"/>
		</g>
	</g>
</svg>