<?xml version="1.0" encoding="UTF-8"?>
<svg xmlns="http://www.w3.org/2000/svg" xmlns:xlink="http://www.w3.org/1999/xlink" viewBox="0 0 1300 220">
  <defs>
    <style>
      .cls-1 {
        fill: url(#linear-gradient-2);
      }

      .cls-1, .cls-2, .cls-3, .cls-4, .cls-5, .cls-6 {
        stroke: #231f20;
        stroke-width: 2px;
      }

      .cls-2 {
        fill: url(#linear-gradient);
      }

      .cls-3 {
        fill: #887f80;
      }

      .cls-7 {
        fill: #9dcc41;
      }

      .cls-4 {
        fill: #e5615b;
      }

      .cls-5 {
        fill: #231f20;
      }

      .cls-6 {
        fill: none;
      }
    </style>
    <linearGradient id="linear-gradient" x1="507.9" y1="205" x2="543.9" y2="205" gradientTransform="translate(0 216) scale(1 -1)" gradientUnits="userSpaceOnUse">
      <stop offset="0" stop-color="#c7cce7"/>
      <stop offset=".8" stop-color="#5880b8"/>
      <stop offset="1" stop-color="#406fae"/>
    </linearGradient>
    <linearGradient id="linear-gradient-2" x1="507.2" y1="152.6" x2="544.9" y2="152.6" gradientTransform="translate(0 216) scale(1 -1)" gradientUnits="userSpaceOnUse">
      <stop offset="0" stop-color="#d4d7dc"/>
      <stop offset="1" stop-color="#888f95"/>
    </linearGradient>
  </defs>
  <!-- Generator: Adobe Illustrator 28.6.0, SVG Export Plug-In . SVG Version: 1.2.0 Build 709)  -->
  <g>
    <g id="Layer_1">
      <g>
        <path class="cls-7" d="M977.1,114.4c-13.2-3.5-25.8-9.2-39-13.2-56.9-17.3-123.7-24.1-182.7-26.1-104.9-3.5-214.4,3.3-316.2,29.8l-193.2,33.1,317.6,63.5,446-14.9-32.4-72.3h0Z"/>
        <path class="cls-7" d="M219.3,124c-5.1-12.9-160.2-24-219.3-24v113.3h1298.9l.2-113.8c-115.4,0-232.1-2.5-346.5,8.2"/>
        <path class="cls-7" d="M178.6,126.4c36.4-8.2,58.5-13.7,96.2-18.2,28.1-3.4,56.8-2.8,85.1-2.4,51.3.6,102.9,6,149.8,16.2"/>
      </g>
      <g id="Barn">
        <g>
          <polygon class="cls-3" points="550.9 83 634.9 77 639.7 73 653.7 46.2 679.7 30.2 584.7 45.5 566.2 57 550.9 83"/>
          <polyline class="cls-3" points="679.2 30.8 694.2 48 704.2 76.2 710.2 81 706.4 81.8 699.9 77.2 691.2 49.2 676.2 32.2"/>
          <line class="cls-6" x1="566.7" y1="56.5" x2="651.7" y2="45.5"/>
          <line class="cls-6" x1="553.9" y1="77.8" x2="639.2" y2="72"/>
          <polyline class="cls-4" points="554.4 105.2 554.4 82.5 634.2 77.5 635.2 107.5"/>
          <polyline class="cls-4" points="633.9 107.8 633.9 77.5 639.2 72.5 651.2 45.8 676.7 31.2 691.7 48.2 701.4 76.2 706.9 80.8 706.7 106.2"/>
          <polyline class="cls-3" points="661.2 107 660.7 77.5 687.4 77.8 687.5 106.7"/>
          <line class="cls-6" x1="660.9" y1="77.5" x2="687.9" y2="106.2"/>
          <line class="cls-6" x1="661.2" y1="106.8" x2="687.2" y2="78.2"/>
          <rect class="cls-3" x="660.7" y="47.5" width="8" height="14.5"/>
          <rect class="cls-3" x="677.4" y="47.8" width="8" height="14.5"/>
          <rect class="cls-5" x="662.7" y="50" width="4" height="9.2"/>
          <rect class="cls-5" x="679.4" y="50.5" width="4" height="9.2"/>
        </g>
        <path class="cls-2" d="M507.9,21c0-11.1,8.1-20,18-20s18,8.9,18,20"/>
        <polyline class="cls-1" points="507.2 106.1 507.2 20.7 544.9 20.7 544.9 106.1"/>
      </g>
    </g>
  </g>
</svg>