<svg xmlns="http://www.w3.org/2000/svg" xmlns:xlink="http://www.w3.org/1999/xlink" viewBox="0 0 100 100">
	<defs>
		<style>
			.star {
				fill: white;
			}
		</style>
	</defs>
	<g>
		<polygon class="star" points="8.5 45.7 8.7 46.3 9.3 46.4 8.9 46.8 9 47.4 8.5 47.1 7.9 47.4 8 46.8 7.6 46.4 8.2 46.3 8.5 45.7"/>
		<polygon class="star" points="9.5 21.3 9.8 21.8 10.4 21.9 9.9 22.3 10 22.9 9.5 22.6 9 22.9 9.1 22.3 8.6 21.9 9.2 21.8 9.5 21.3"/>
		<polygon class="star" points="25.6 42 25.9 42.4 26.3 42.5 26 42.8 26.1 43.3 25.6 43.1 25.2 43.3 25.3 42.8 24.9 42.5 25.4 42.4 25.6 42"/>
		<polygon class="star" points="45.5 36.8 45.7 37.3 46.2 37.3 45.9 37.7 45.9 38.2 45.5 37.9 45.1 38.2 45.2 37.7 44.8 37.3 45.3 37.3 45.5 36.8"/>
		<polygon class="star" points="14.9 32.5 15.1 32.9 15.6 33 15.3 33.3 15.3 33.8 14.9 33.6 14.5 33.8 14.6 33.3 14.2 33 14.7 32.9 14.9 32.5"/>
		<polygon class="star" points="23.1 25.5 23.3 25.9 23.8 26 23.4 26.3 23.5 26.8 23.1 26.6 22.6 26.8 22.7 26.3 22.4 26 22.8 25.9 23.1 25.5"/>
		<polygon class="star" points="44.8 25.4 45 25.8 45.5 25.9 45.2 26.2 45.2 26.7 44.8 26.5 44.4 26.7 44.5 26.2 44.1 25.9 44.6 25.8 44.8 25.4"/>
		<polygon class="star" points="28.5 79 28.7 79.4 29.2 79.5 28.9 79.8 28.9 80.3 28.5 80.1 28.1 80.3 28.2 79.8 27.8 79.5 28.3 79.4 28.5 79"/>
		<polygon class="star" points="35.3 93.1 35.5 93.6 36 93.6 35.6 94 35.7 94.4 35.3 94.2 34.8 94.4 34.9 94 34.6 93.6 35 93.6 35.3 93.1"/>
		<polygon class="star" points="46.2 91.4 46.4 91.9 46.9 91.9 46.6 92.3 46.6 92.8 46.2 92.5 45.8 92.8 45.9 92.3 45.5 91.9 46 91.9 46.2 91.4"/>
		<polygon class="star" points="26 92.1 26.2 92.6 26.7 92.6 26.4 93 26.5 93.4 26 93.2 25.6 93.4 25.7 93 25.3 92.6 25.8 92.6 26 92.1"/>
		<polygon class="star" points="9.3 93.7 9.5 94.2 10 94.2 9.6 94.6 9.7 95.1 9.3 94.8 8.8 95.1 8.9 94.6 8.6 94.2 9.1 94.2 9.3 93.7"/>
		<polygon class="star" points="13 87.2 13.2 87.6 13.7 87.7 13.3 88.1 13.4 88.5 13 88.3 12.5 88.5 12.6 88.1 12.3 87.7 12.7 87.6 13 87.2"/>
		<polygon class="star" points="8.6 13.6 8.9 14.1 9.3 14.1 9 14.5 9.1 15 8.6 14.7 8.2 15 8.3 14.5 7.9 14.1 8.4 14.1 8.6 13.6"/>
		<polygon class="star" points="16.6 8.6 16.8 9.1 17.3 9.1 16.9 9.5 17 10 16.6 9.7 16.1 10 16.2 9.5 15.9 9.1 16.3 9.1 16.6 8.6"/>
		<polygon class="star" points="37.9 11.6 38.1 12 38.6 12.1 38.2 12.4 38.3 12.9 37.9 12.7 37.4 12.9 37.5 12.4 37.2 12.1 37.7 12 37.9 11.6"/>
		<polygon class="star" points="14.1 27.1 14.2 27.4 14.4 27.4 14.2 27.6 14.3 27.8 14.1 27.7 13.8 27.8 13.9 27.6 13.7 27.4 13.9 27.4 14.1 27.1"/>
		<polygon class="star" points="25.6 10.6 25.7 10.8 26 10.8 25.8 11 25.9 11.3 25.6 11.1 25.4 11.3 25.5 11 25.3 10.8 25.5 10.8 25.6 10.6"/>
		<polygon class="star" points="12.4 13.2 12.5 13.4 12.8 13.5 12.6 13.6 12.6 13.9 12.4 13.8 12.2 13.9 12.2 13.6 12.1 13.5 12.3 13.4 12.4 13.2"/>
		<polygon class="star" points="23.1 19.1 23.2 19.3 23.4 19.3 23.2 19.5 23.3 19.7 23.1 19.6 22.8 19.7 22.9 19.5 22.7 19.3 22.9 19.3 23.1 19.1"/>
		<polygon class="star" points="50.7 14.6 50.8 14.8 51 14.9 50.9 15 50.9 15.3 50.7 15.1 50.5 15.3 50.5 15 50.3 14.9 50.6 14.8 50.7 14.6"/>
		<polygon class="star" points="29.7 25.5 29.8 25.7 30.1 25.7 29.9 25.9 30 26.1 29.7 26 29.5 26.1 29.6 25.9 29.4 25.7 29.6 25.7 29.7 25.5"/>
		<polygon class="star" points="51.4 72.4 51.5 72.6 51.7 72.7 51.6 72.8 51.6 73.1 51.4 73 51.2 73.1 51.2 72.8 51 72.7 51.3 72.6 51.4 72.4"/>
		<polygon class="star" points="12.2 45.6 12.3 45.8 12.6 45.9 12.4 46.1 12.4 46.3 12.2 46.2 12 46.3 12.1 46.1 11.9 45.9 12.1 45.8 12.2 45.6"/>
		<polygon class="star" points="35.5 64 35.6 64.2 35.9 64.3 35.7 64.4 35.7 64.7 35.5 64.6 35.3 64.7 35.3 64.4 35.2 64.3 35.4 64.2 35.5 64"/>
		<polygon class="star" points="43.8 54 43.9 54.2 44.1 54.2 43.9 54.4 44 54.7 43.8 54.5 43.6 54.7 43.6 54.4 43.4 54.2 43.7 54.2 43.8 54"/>
		<polygon class="star" points="47.2 50.7 47.3 50.9 47.6 51 47.4 51.1 47.4 51.4 47.2 51.3 47 51.4 47 51.1 46.9 51 47.1 50.9 47.2 50.7"/>
		<polygon class="star" points="48.8 41.7 48.9 41.9 49.1 41.9 48.9 42.1 49 42.3 48.8 42.2 48.6 42.3 48.6 42.1 48.4 41.9 48.7 41.9 48.8 41.7"/>
		<polygon class="star" points="22.7 48.6 22.8 48.9 23.1 48.9 22.9 49.1 22.9 49.3 22.7 49.2 22.5 49.3 22.6 49.1 22.4 48.9 22.6 48.9 22.7 48.6"/>
		<polygon class="star" points="20.6 55.1 20.7 55.3 20.9 55.4 20.7 55.5 20.8 55.8 20.6 55.7 20.4 55.8 20.4 55.5 20.2 55.4 20.5 55.3 20.6 55.1"/>
		<polygon class="star" points="30.3 38 30.4 38.3 30.7 38.3 30.5 38.5 30.5 38.7 30.3 38.6 30.1 38.7 30.1 38.5 30 38.3 30.2 38.3 30.3 38"/>
		<polygon class="star" points="24.1 33.9 24.2 34.1 24.5 34.2 24.3 34.3 24.3 34.6 24.1 34.5 23.9 34.6 23.9 34.3 23.8 34.2 24 34.1 24.1 33.9"/>
		<polygon class="star" points="50.3 29 50.5 29.3 50.7 29.3 50.5 29.5 50.6 29.7 50.3 29.6 50.1 29.7 50.2 29.5 50 29.3 50.2 29.3 50.3 29"/>
		<polygon class="star" points="49.1 8.7 49.2 8.9 49.5 8.9 49.3 9.1 49.3 9.4 49.1 9.2 48.9 9.4 48.9 9.1 48.8 8.9 49 8.9 49.1 8.7"/>
		<polygon class="star" points="25.6 49.2 25.7 49.4 25.9 49.5 25.7 49.6 25.8 49.9 25.6 49.8 25.3 49.9 25.4 49.6 25.2 49.5 25.5 49.4 25.6 49.2"/>
		<polygon class="star" points="32.5 65.5 32.6 65.7 32.9 65.8 32.7 65.9 32.8 66.2 32.5 66.1 32.3 66.2 32.4 65.9 32.2 65.8 32.4 65.7 32.5 65.5"/>
		<polygon class="star" points="9.4 57.5 9.5 57.7 9.7 57.8 9.6 57.9 9.6 58.2 9.4 58 9.2 58.2 9.2 57.9 9 57.8 9.3 57.7 9.4 57.5"/>
		<polygon class="star" points="7.4 68.4 7.5 68.6 7.8 68.7 7.6 68.8 7.7 69.1 7.4 69 7.2 69.1 7.3 68.8 7.1 68.7 7.3 68.6 7.4 68.4"/>
		<polygon class="star" points="24.5 66.6 24.6 66.8 24.8 66.9 24.6 67 24.7 67.3 24.5 67.2 24.2 67.3 24.3 67 24.1 66.9 24.3 66.8 24.5 66.6"/>
		<polygon class="star" points="23.8 75.1 23.9 75.3 24.1 75.3 23.9 75.5 24 75.7 23.8 75.6 23.5 75.7 23.6 75.5 23.4 75.3 23.6 75.3 23.8 75.1"/>
		<polygon class="star" points="13.6 81.4 13.7 81.6 13.9 81.6 13.8 81.8 13.8 82 13.6 81.9 13.4 82 13.4 81.8 13.2 81.6 13.5 81.6 13.6 81.4"/>
		<polygon class="star" points="6.3 88.2 6.4 88.4 6.6 88.4 6.5 88.6 6.5 88.8 6.3 88.7 6.1 88.8 6.1 88.6 5.9 88.4 6.2 88.4 6.3 88.2"/>
		<polygon class="star" points="38.3 82.3 38.4 82.5 38.7 82.5 38.5 82.7 38.6 82.9 38.3 82.8 38.1 82.9 38.2 82.7 38 82.5 38.2 82.5 38.3 82.3"/>
		<polygon class="star" points="32.9 85.2 33 85.5 33.2 85.5 33.1 85.7 33.1 85.9 32.9 85.8 32.7 85.9 32.7 85.7 32.5 85.5 32.8 85.5 32.9 85.2"/>
		<polygon class="star" points="50.3 89.2 50.5 89.4 50.7 89.4 50.5 89.6 50.6 89.9 50.3 89.7 50.1 89.9 50.2 89.6 50 89.4 50.2 89.4 50.3 89.2"/>
		<polygon class="star" points="44.1 77.1 44.2 77.3 44.5 77.3 44.3 77.5 44.3 77.7 44.1 77.6 43.9 77.7 43.9 77.5 43.8 77.3 44 77.3 44.1 77.1"/>
		<polygon class="star" points="46.2 67.2 46.3 67.4 46.6 67.4 46.4 67.6 46.4 67.9 46.2 67.7 46 67.9 46 67.6 45.9 67.4 46.1 67.4 46.2 67.2"/>
		<polygon class="star" points="23 90.7 23.1 91 23.3 91 23.2 91.2 23.2 91.4 23 91.3 22.8 91.4 22.8 91.2 22.6 91 22.9 91 23 90.7"/>
		<polygon class="star" points="30.1 53.5 30.4 54 31 54.1 30.6 54.6 30.7 55.1 30.1 54.9 29.6 55.1 29.7 54.6 29.3 54.1 29.9 54 30.1 53.5"/>
		<polygon class="star" points="51 57.3 51.3 57.8 51.9 57.9 51.5 58.3 51.6 58.9 51 58.6 50.5 58.9 50.6 58.3 50.2 57.9 50.8 57.8 51 57.3"/>
		<polygon class="star" points="63.2 39.7 63.5 40.2 64.1 40.3 63.7 40.8 63.8 41.4 63.2 41.1 62.7 41.4 62.8 40.8 62.4 40.3 63 40.2 63.2 39.7"/>
		<polygon class="star" points="10.9 71.5 11.1 72.1 11.7 72.2 11.3 72.6 11.4 73.2 10.9 72.9 10.3 73.2 10.4 72.6 10 72.2 10.6 72.1 10.9 71.5"/>
		<polygon class="star" points="84.4 18.5 84.7 19 85.3 19.1 84.8 19.5 84.9 20.1 84.4 19.8 83.9 20.1 84 19.5 83.5 19.1 84.1 19 84.4 18.5"/>
		<polygon class="star" points="81.8 34.4 82.1 34.9 82.5 35 82.2 35.3 82.3 35.8 81.8 35.5 81.4 35.8 81.5 35.3 81.1 35 81.6 34.9 81.8 34.4"/>
		<polygon class="star" points="71.4 43.3 71.6 43.7 72.1 43.8 71.8 44.1 71.8 44.6 71.4 44.4 71 44.6 71.1 44.1 70.7 43.8 71.2 43.7 71.4 43.3"/>
		<polygon class="star" points="73.1 12 73.3 12.5 73.8 12.5 73.5 12.9 73.6 13.4 73.1 13.1 72.7 13.4 72.8 12.9 72.4 12.5 72.9 12.5 73.1 12"/>
		<polygon class="star" points="58.5 10.9 58.7 11.3 59.2 11.4 58.8 11.7 58.9 12.2 58.5 12 58.1 12.2 58.1 11.7 57.8 11.4 58.3 11.3 58.5 10.9"/>
		<polygon class="star" points="69.9 59 70.1 59.5 70.6 59.5 70.2 59.9 70.3 60.4 69.9 60.1 69.4 60.4 69.5 59.9 69.2 59.5 69.7 59.5 69.9 59"/>
		<polygon class="star" points="87.6 52.7 87.8 53.2 88.3 53.2 87.9 53.6 88 54.1 87.6 53.8 87.1 54.1 87.2 53.6 86.9 53.2 87.4 53.2 87.6 52.7"/>
		<polygon class="star" points="87.9 40.8 88.2 41.2 88.6 41.3 88.3 41.6 88.4 42.1 87.9 41.9 87.5 42.1 87.6 41.6 87.2 41.3 87.7 41.2 87.9 40.8"/>
		<polygon class="star" points="89.6 74.7 89.8 75.1 90.3 75.2 89.9 75.5 90 76 89.6 75.8 89.1 76 89.2 75.5 88.9 75.2 89.4 75.1 89.6 74.7"/>
		<polygon class="star" points="71.6 84.6 71.8 85.1 72.3 85.1 71.9 85.5 72 86 71.6 85.7 71.1 86 71.2 85.5 70.9 85.1 71.3 85.1 71.6 84.6"/>
		<polygon class="star" points="60.5 54.5 60.7 55 61.2 55 60.8 55.4 60.9 55.9 60.5 55.6 60.1 55.9 60.1 55.4 59.8 55 60.3 55 60.5 54.5"/>
		<polygon class="star" points="65.2 72.3 65.4 72.8 65.9 72.9 65.5 73.2 65.6 73.7 65.2 73.4 64.8 73.7 64.8 73.2 64.5 72.9 65 72.8 65.2 72.3"/>
		<polygon class="star" points="88.5 5.6 88.8 6.1 89.2 6.1 88.9 6.5 89 7 88.5 6.7 88.1 7 88.2 6.5 87.8 6.1 88.3 6.1 88.5 5.6"/>
		<polygon class="star" points="93.3 7.4 93.5 7.8 94 7.9 93.6 8.2 93.7 8.7 93.3 8.5 92.8 8.7 92.9 8.2 92.6 7.9 93.1 7.8 93.3 7.4"/>
		<polygon class="star" points="92 12.2 92.1 12.4 92.3 12.5 92.2 12.6 92.2 12.9 92 12.8 91.8 12.9 91.8 12.6 91.6 12.5 91.9 12.4 92 12.2"/>
		<polygon class="star" points="75.3 28.7 75.4 28.9 75.6 28.9 75.4 29.1 75.5 29.3 75.3 29.2 75 29.3 75.1 29.1 74.9 28.9 75.1 28.9 75.3 28.7"/>
		<polygon class="star" points="62.2 19.8 62.3 20.1 62.5 20.1 62.3 20.3 62.4 20.5 62.2 20.4 61.9 20.5 62 20.3 61.8 20.1 62.1 20.1 62.2 19.8"/>
		<polygon class="star" points="75.5 23.3 75.6 23.5 75.9 23.6 75.7 23.7 75.7 24 75.5 23.9 75.3 24 75.3 23.7 75.2 23.6 75.4 23.5 75.5 23.3"/>
		<polygon class="star" points="67.8 34.8 67.9 35 68.2 35 68 35.2 68 35.4 67.8 35.3 67.6 35.4 67.6 35.2 67.5 35 67.7 35 67.8 34.8"/>
		<polygon class="star" points="57.1 76.2 57.2 76.4 57.5 76.4 57.3 76.6 57.4 76.8 57.1 76.7 56.9 76.8 57 76.6 56.8 76.4 57 76.4 57.1 76.2"/>
		<polygon class="star" points="87.2 20.3 87.3 20.5 87.5 20.5 87.3 20.7 87.4 20.9 87.2 20.8 86.9 20.9 87 20.7 86.8 20.5 87 20.5 87.2 20.3"/>
		<polygon class="star" points="91.6 25 91.7 25.2 91.9 25.3 91.7 25.4 91.8 25.7 91.6 25.6 91.3 25.7 91.4 25.4 91.2 25.3 91.5 25.2 91.6 25"/>
		<polygon class="star" points="93.6 32.8 93.7 33 93.9 33.1 93.7 33.2 93.8 33.5 93.6 33.4 93.4 33.5 93.4 33.2 93.2 33.1 93.5 33 93.6 32.8"/>
		<polygon class="star" points="73.6 49 73.7 49.3 73.9 49.3 73.8 49.5 73.8 49.7 73.6 49.6 73.4 49.7 73.4 49.5 73.2 49.3 73.5 49.3 73.6 49"/>
		<polygon class="star" points="64.1 51.1 64.2 51.3 64.5 51.4 64.3 51.5 64.4 51.8 64.1 51.7 63.9 51.8 64 51.5 63.8 51.4 64 51.3 64.1 51.1"/>
		<polygon class="star" points="62.9 33.1 63 33.4 63.2 33.4 63 33.6 63.1 33.8 62.9 33.7 62.6 33.8 62.7 33.6 62.5 33.4 62.8 33.4 62.9 33.1"/>
		<polygon class="star" points="86.2 55.7 86.3 55.9 86.5 55.9 86.3 56.1 86.4 56.4 86.2 56.2 86 56.4 86 56.1 85.8 55.9 86.1 55.9 86.2 55.7"/>
		<polygon class="star" points="83.7 45.4 83.8 45.6 84 45.6 83.8 45.8 83.9 46 83.7 45.9 83.5 46 83.5 45.8 83.3 45.6 83.6 45.6 83.7 45.4"/>
		<polygon class="star" points="72.9 58.3 73 58.5 73.2 58.6 73.1 58.7 73.1 59 72.9 58.9 72.7 59 72.7 58.7 72.5 58.6 72.8 58.5 72.9 58.3"/>
		<polygon class="star" points="55.9 42.4 56 42.7 56.3 42.7 56.1 42.9 56.1 43.1 55.9 43 55.7 43.1 55.7 42.9 55.6 42.7 55.8 42.7 55.9 42.4"/>
		<polygon class="star" points="75.8 69.2 75.9 69.4 76.2 69.5 76 69.6 76.1 69.9 75.8 69.8 75.6 69.9 75.7 69.6 75.5 69.5 75.7 69.4 75.8 69.2"/>
		<polygon class="star" points="84.1 75.4 84.2 75.7 84.5 75.7 84.3 75.9 84.4 76.1 84.1 76 83.9 76.1 84 75.9 83.8 75.7 84 75.7 84.1 75.4"/>
		<polygon class="star" points="80 81.1 80.1 81.3 80.3 81.4 80.1 81.5 80.2 81.8 80 81.7 79.8 81.8 79.8 81.5 79.6 81.4 79.9 81.3 80 81.1"/>
		<polygon class="star" points="79.1 79.3 79.2 79.5 79.4 79.6 79.2 79.7 79.3 80 79.1 79.8 78.8 80 78.9 79.7 78.7 79.6 78.9 79.5 79.1 79.3"/>
		<polygon class="star" points="61.8 66.7 61.9 66.9 62.2 67 62 67.1 62 67.4 61.8 67.3 61.6 67.4 61.6 67.1 61.5 67 61.7 66.9 61.8 66.7"/>
		<polygon class="star" points="55.6 63.1 55.7 63.4 55.9 63.4 55.7 63.6 55.8 63.8 55.6 63.7 55.3 63.8 55.4 63.6 55.2 63.4 55.4 63.4 55.6 63.1"/>
		<polygon class="star" points="83 64 83.1 64.2 83.4 64.2 83.2 64.4 83.2 64.6 83 64.5 82.8 64.6 82.8 64.4 82.7 64.2 82.9 64.2 83 64"/>
		<polygon class="star" points="88.3 91.1 88.4 91.3 88.6 91.3 88.5 91.5 88.5 91.7 88.3 91.6 88.1 91.7 88.1 91.5 87.9 91.3 88.2 91.3 88.3 91.1"/>
		<polygon class="star" points="69.1 89.7 69.2 89.9 69.4 90 69.3 90.1 69.3 90.4 69.1 90.3 68.9 90.4 68.9 90.1 68.7 90 69 89.9 69.1 89.7"/>
		<polygon class="star" points="59.3 91.9 59.4 92.1 59.7 92.1 59.5 92.3 59.5 92.5 59.3 92.4 59.1 92.5 59.1 92.3 59 92.1 59.2 92.1 59.3 91.9"/>
		<polygon class="star" points="85.8 87.3 86 87.6 86.2 87.6 86 87.8 86.1 88 85.8 87.9 85.6 88 85.7 87.8 85.5 87.6 85.7 87.6 85.8 87.3"/>
		<polygon class="star" points="76.8 11.6 76.9 11.8 77.2 11.9 77 12 77 12.3 76.8 12.2 76.6 12.3 76.6 12 76.5 11.9 76.7 11.8 76.8 11.6"/>
		<polygon class="star" points="72.6 5.4 72.7 5.6 72.9 5.7 72.8 5.8 72.8 6.1 72.6 6 72.4 6.1 72.4 5.8 72.2 5.7 72.5 5.6 72.6 5.4"/>
		<polygon class="star" points="69.4 18 69.5 18.2 69.8 18.2 69.6 18.4 69.6 18.6 69.4 18.5 69.2 18.6 69.3 18.4 69.1 18.2 69.3 18.2 69.4 18"/>
		<polygon class="star" points="67.5 7.6 67.6 7.8 67.8 7.8 67.6 8 67.7 8.2 67.5 8.1 67.2 8.2 67.3 8 67.1 7.8 67.4 7.8 67.5 7.6"/>
		<polygon class="star" points="56.1 8.1 56.2 8.4 56.5 8.4 56.3 8.6 56.3 8.8 56.1 8.7 55.9 8.8 56 8.6 55.8 8.4 56 8.4 56.1 8.1"/>
	</g>
</svg>