<svg xmlns="http://www.w3.org/2000/svg" viewBox="0 0 512 512">
	<defs>
		<style>
			#kitty #head {
				stroke: white;
				stroke-width: 20;
				stroke-linecap: round;
				stroke-linejoin: round;
				fill: lightgrey;
			}

			#kitty #mouth, 
			#kitty #whiskers {
				stroke-width: 20;
				stroke-linecap: round;
			}

			#kitty #eyes {
				fill: black
			}

			#kitty #nose {
				fill: hsl(0, 100%, 75%);
			}

			#kitty #mouth, 
			#kitty #whiskers {
				stroke: grey;
			}
		</style>
	</defs>

	<rect width="480" height="480" x="16" y="16" rx="128" ry="128" fill="hsl(-10, 100%, 66%)" stroke="hsl(-10, 100%, 50%)" stroke-width="16" />

	<g id="logo" transform="translate(256, 256) scale(0.9) translate(0 -20) translate(0, 20) translate(-256, -256)">
		<g id="film" transform="translate(264 256) scale(1.1 0.9) rotate(90) translate(-256 -256)">
			<g transform="scale(14.25)">
				<path d="M29 11h6v14h-6zM1 11h6v14H1zm8 0h18v14H9z" fill="#BBDDF5" />
				<path fill="#231F20" d="M35 11V6H1v5h6v14H1v5h34v-5h-6V11h6zm-8 14H9V11h18v14z" />
				<path fill="#F5F8FA" d="M31 7h2v3h-2zm-4 0h2v3h-2zm-4 0h2v3h-2zm-4 0h2v3h-2zm-4 0h2v3h-2zm-4 0h2v3h-2zM7 7h2v3H7zM3 7h2v3H3zm28 19h2v3h-2zm-4 0h2v3h-2zm-4 0h2v3h-2zm-4 0h2v3h-2zm-4 0h2v3h-2zm-4 0h2v3h-2zm-4 0h2v3H7zm-4 0h2v3H3z" />
				<path fill="#88C9F9" d="M29 25V11h1v14zM9 25V11h1v14z" />
			</g>
		</g>

		<g id="kitty">
			<path id="head" d="M 204.6, 186.1 l -42.4 -69.5 c -1.6 -4 -5.4 -6.8 -9.7 -7.2 -4.3 -.4 -8.5, 1.6 -10.8, 5.3 -112.2, 238.9 -53.9, 304.5, 114.4, 303.7, 252.7, 1, 166.6 -206.3, 114.4 -310.7 -5.1-7.9 -16.9-6.9 -20.6, 1.8 l -42.4, 76.5 h -102.9 Z" />

			<g id="eyes-open">
				<ellipse cx="205" cy="270" rx="20" ry="30" />
				<ellipse cx="305" cy="270" rx="20" ry="30" />
				<animate id="eyes-open-blink"
					attributeName="opacity"
					values="0;1"
					begin="10s;eyes-open-blink.end+30s"
					dur="1s"
					fill="remove"
					calcMode="discrete"
					repeatCount="1" />
			</g>

			<g id="eyes-closed" opacity="0">
				<line x1="185" y1="270" x2="225" y2="270" />
				<line x1="285" y1="270" x2="325" y2="270" />
				<animate id="eyes-closed-blink"
					attributeName="opacity"
					values="1;0"
					begin="10s;eyes-closed-blink.end+30s"
					dur="1s"
					fill="remove"
					calcMode="discrete"
					repeatCount="1" />
			</g>

			<g id="mouth" style="display:none">
				<line x1="255" y1="315" x2="255" y2="365" />
				<line x1="215" y1="370" x2="255" y2="365" />
				<line x1="255" y1="365" x2="295" y2="370" />
			</g>

			<g id="nose">
				<ellipse cx="255" cy="320" rx="30" ry="20" />
			</g>

			<g id="whiskers">
				<line x1="30" y1="330" x2="150" y2="330" />
				<line x1="45" y1="390" x2="150" y2="360" />
				<line x1="475" y1="330" x2="350" y2="330" />
				<line x1="460" y1="390" x2="350" y2="360" />
			</g>
		</g>
	</g>
</svg>