<svg xmlns="http://www.w3.org/2000/svg" viewBox="0 0 512 512">
	<defs>
		<style>
			#kitty #head {
				fill: white;
			}

			#message {
				stroke: black;
				stroke-width: 1.5;
				fill: white;
			}
		</style>
	</defs>

	<g transform="translate(-20, 50)">
		<g id="kitty" transform="translate(256, 256) scale(1) translate(-256, -256)">
			<path id="head" d="M 204.6, 186.1 l -42.4 -69.5 c -1.6 -4 -5.4 -6.8 -9.7 -7.2 -4.3 -.4 -8.5, 1.6 -10.8, 5.3 -112.2, 238.9 -53.9, 304.5, 114.4, 303.7, 252.7, 1, 166.6 -206.3, 114.4 -310.7 -5.1-7.9 -16.9-6.9 -20.6, 1.8 l -42.4, 76.5 h -102.9 Z" />
		</g>
	</g>

	<g id="message" transform="translate(-150, -150) scale(1.5)">
		<path transform="translate(200, 100) scale(10)" d="M12 2c5.514 0 10 3.532 10 7.874 0 4.162-3.627 6.72-7.893 7.721l-2.107 2.958-2.107-2.958c-4.304-1.011-7.893-3.617-7.893-7.721 0-4.342 4.486-7.874 10-7.874z" />
	</g>
</svg>