<svg xmlns="http://www.w3.org/2000/svg" xmlns:xlink="http://www.w3.org/1999/xlink" viewBox="0 0 1298.9 213.3">
	<defs>
		<style>
			.land {
				fill: #9dcc41;
			}
		</style>
		<linearGradient id="linear-gradient" x1="507.9" y1="205" x2="543.9" y2="205" gradientTransform="translate(0 216) scale(1 -1)" gradientUnits="userSpaceOnUse">
			<stop offset="0" stop-color="#c7cce7"/>
			<stop offset=".8" stop-color="#5880b8"/>
			<stop offset="1" stop-color="#406fae"/>
		</linearGradient>
		<linearGradient id="linear-gradient-2" x1="507.2" y1="152.6" x2="544.9" y2="152.6" gradientTransform="translate(0 216) scale(1 -1)" gradientUnits="userSpaceOnUse">
			<stop offset="0" stop-color="#d4d7dc"/>
			<stop offset="1" stop-color="#888f95"/>
		</linearGradient>
	</defs>
	<g class="land">
		<path d="M977.1,114.4c-13.2-3.5-25.8-9.2-39-13.2-56.9-17.3-123.7-24.1-182.7-26.1-104.9-3.5-214.4,3.3-316.2,29.8l-193.2,33.1,317.6,63.5,446-14.9-32.4-72.3h0Z"/>
		<path d="M219.3,124c-5.1-12.9-160.2-24-219.3-24v113.3h1298.9l.2-113.8c-115.4,0-232.1-2.5-346.5,8.2"/>
		<path d="M178.6,126.4c36.4-8.2,58.5-13.7,96.2-18.2,28.1-3.4,56.8-2.8,85.1-2.4,51.3.6,102.9,6,149.8,16.2"/>
	</g>
</svg>